<mxfile host="app.diagrams.net" agent="Mozilla/5.0 (X11; Linux x86_64) AppleWebKit/537.36 (KHTML, like Gecko) Chrome/138.0.0.0 Safari/537.36" version="28.2.3">
  <diagram name="第 1 页" id="glRhAF9iYpnVIE04C43l">
    <mxGraphModel dx="679" dy="367" grid="1" gridSize="10" guides="1" tooltips="1" connect="1" arrows="1" fold="1" page="1" pageScale="1" pageWidth="2339" pageHeight="3300" math="0" shadow="0">
      <root>
        <mxCell id="0" />
        <mxCell id="1" parent="0" />
        <mxCell id="zHhdcCAoX4gUyJO60ZWm-1" value="MPI Application" style="rounded=0;whiteSpace=wrap;html=1;rotation=0;labelBackgroundColor=none;fillColor=none;" vertex="1" parent="1">
          <mxGeometry x="550" y="140" width="240" height="30" as="geometry" />
        </mxCell>
        <mxCell id="zHhdcCAoX4gUyJO60ZWm-2" value="" style="endArrow=none;html=1;rounded=0;" edge="1" parent="1">
          <mxGeometry width="50" height="50" relative="1" as="geometry">
            <mxPoint x="550" y="180" as="sourcePoint" />
            <mxPoint x="790" y="180" as="targetPoint" />
          </mxGeometry>
        </mxCell>
        <mxCell id="zHhdcCAoX4gUyJO60ZWm-3" value="" style="endArrow=none;html=1;rounded=0;" edge="1" parent="1">
          <mxGeometry width="50" height="50" relative="1" as="geometry">
            <mxPoint x="550" y="210" as="sourcePoint" />
            <mxPoint x="550" y="180" as="targetPoint" />
          </mxGeometry>
        </mxCell>
        <mxCell id="zHhdcCAoX4gUyJO60ZWm-4" value="" style="endArrow=none;html=1;rounded=0;" edge="1" parent="1">
          <mxGeometry width="50" height="50" relative="1" as="geometry">
            <mxPoint x="790" y="286" as="sourcePoint" />
            <mxPoint x="790" y="180" as="targetPoint" />
          </mxGeometry>
        </mxCell>
        <mxCell id="zHhdcCAoX4gUyJO60ZWm-5" value="" style="endArrow=none;html=1;rounded=0;" edge="1" parent="1">
          <mxGeometry width="50" height="50" relative="1" as="geometry">
            <mxPoint x="550" y="210" as="sourcePoint" />
            <mxPoint x="757" y="210" as="targetPoint" />
          </mxGeometry>
        </mxCell>
        <mxCell id="zHhdcCAoX4gUyJO60ZWm-6" value="OMPI" style="text;strokeColor=none;fillColor=none;html=1;fontSize=12;fontStyle=0;verticalAlign=middle;align=center;" vertex="1" parent="1">
          <mxGeometry x="620" y="176" width="100" height="40" as="geometry" />
        </mxCell>
        <mxCell id="zHhdcCAoX4gUyJO60ZWm-12" value="" style="endArrow=none;html=1;rounded=0;" edge="1" parent="1">
          <mxGeometry width="50" height="50" relative="1" as="geometry">
            <mxPoint x="550" y="220" as="sourcePoint" />
            <mxPoint x="750" y="220" as="targetPoint" />
          </mxGeometry>
        </mxCell>
        <mxCell id="zHhdcCAoX4gUyJO60ZWm-13" value="" style="endArrow=none;html=1;rounded=0;" edge="1" parent="1">
          <mxGeometry width="50" height="50" relative="1" as="geometry">
            <mxPoint x="550" y="250" as="sourcePoint" />
            <mxPoint x="550" y="220" as="targetPoint" />
          </mxGeometry>
        </mxCell>
        <mxCell id="zHhdcCAoX4gUyJO60ZWm-14" value="" style="endArrow=none;html=1;rounded=0;" edge="1" parent="1">
          <mxGeometry width="50" height="50" relative="1" as="geometry">
            <mxPoint x="750" y="250" as="sourcePoint" />
            <mxPoint x="750" y="220" as="targetPoint" />
          </mxGeometry>
        </mxCell>
        <mxCell id="zHhdcCAoX4gUyJO60ZWm-15" value="OPAL" style="text;strokeColor=none;fillColor=none;html=1;fontSize=12;fontStyle=0;verticalAlign=middle;align=center;" vertex="1" parent="1">
          <mxGeometry x="600" y="216" width="100" height="40" as="geometry" />
        </mxCell>
        <mxCell id="zHhdcCAoX4gUyJO60ZWm-16" value="" style="endArrow=none;html=1;rounded=0;" edge="1" parent="1">
          <mxGeometry width="50" height="50" relative="1" as="geometry">
            <mxPoint x="550" y="250" as="sourcePoint" />
            <mxPoint x="750" y="250" as="targetPoint" />
          </mxGeometry>
        </mxCell>
        <mxCell id="zHhdcCAoX4gUyJO60ZWm-20" value="" style="endArrow=none;html=1;rounded=0;" edge="1" parent="1">
          <mxGeometry width="50" height="50" relative="1" as="geometry">
            <mxPoint x="757" y="286" as="sourcePoint" />
            <mxPoint x="757" y="210" as="targetPoint" />
          </mxGeometry>
        </mxCell>
        <mxCell id="zHhdcCAoX4gUyJO60ZWm-21" value="" style="endArrow=none;html=1;rounded=0;" edge="1" parent="1">
          <mxGeometry width="50" height="50" relative="1" as="geometry">
            <mxPoint x="757" y="286" as="sourcePoint" />
            <mxPoint x="790" y="286" as="targetPoint" />
          </mxGeometry>
        </mxCell>
        <mxCell id="zHhdcCAoX4gUyJO60ZWm-22" value="Hardware" style="rounded=0;whiteSpace=wrap;html=1;rotation=0;fillColor=none;" vertex="1" parent="1">
          <mxGeometry x="550" y="290" width="240" height="30" as="geometry" />
        </mxCell>
        <mxCell id="zHhdcCAoX4gUyJO60ZWm-23" value="OS" style="rounded=0;whiteSpace=wrap;html=1;rotation=0;fillColor=none;" vertex="1" parent="1">
          <mxGeometry x="550" y="256" width="200" height="30" as="geometry" />
        </mxCell>
      </root>
    </mxGraphModel>
  </diagram>
</mxfile>
